<?xml version="1.0" encoding="UTF-8" standalone="no"?>
<!-- Created with Inkscape (http://www.inkscape.org/) -->

<svg
   xmlns:dc="http://purl.org/dc/elements/1.1/"
   xmlns:cc="http://creativecommons.org/ns#"
   xmlns:rdf="http://www.w3.org/1999/02/22-rdf-syntax-ns#"
   xmlns:svg="http://www.w3.org/2000/svg"
   xmlns="http://www.w3.org/2000/svg"
   xmlns:sodipodi="http://sodipodi.sourceforge.net/DTD/sodipodi-0.dtd"
   xmlns:inkscape="http://www.inkscape.org/namespaces/inkscape"
   width="256"
   height="256"
   id="svg3072"
   version="1.1"
   inkscape:version="0.48.5 r10040"
   sodipodi:docname="korora-links-v2.svg"
   inkscape:export-filename="/home/firnsy/workspace/src/kororaproject/canvas.git/upstream/public/img/kp-logo.png"
   inkscape:export-xdpi="90"
   inkscape:export-ydpi="90">
  <defs
     id="defs3074">
    <filter
       inkscape:collect="always"
       id="filter3813">
      <feGaussianBlur
         inkscape:collect="always"
         stdDeviation="3.3600388"
         id="feGaussianBlur3815" />
    </filter>
  </defs>
  <sodipodi:namedview
     id="base"
     pagecolor="#428bc0"
     bordercolor="#666666"
     borderopacity="1.0"
     inkscape:pageopacity="1"
     inkscape:pageshadow="2"
     inkscape:zoom="1.4"
     inkscape:cx="97.559278"
     inkscape:cy="111.10661"
     inkscape:document-units="px"
     inkscape:current-layer="layer1"
     showgrid="false"
     inkscape:window-width="1280"
     inkscape:window-height="745"
     inkscape:window-x="0"
     inkscape:window-y="22"
     inkscape:window-maximized="1"
     inkscape:snap-bbox="true"
     inkscape:bbox-nodes="false"
     inkscape:snap-page="true" />
  <metadata
     id="metadata3077">
    <rdf:RDF>
      <cc:Work
         rdf:about="">
        <dc:format>image/svg+xml</dc:format>
        <dc:type
           rdf:resource="http://purl.org/dc/dcmitype/StillImage" />
        <dc:title />
      </cc:Work>
    </rdf:RDF>
  </metadata>
  <g
     inkscape:label="Layer 1"
     inkscape:groupmode="layer"
     id="layer1"
     transform="translate(0,-796.36218)">
    <path
       style="opacity:0.5;fill:#000000;filter:url(#filter3813)"
       d="m 23.941002,1002.9107 c 0.0047,-44.62801 0.480107,-51.45288 4.36922,-62.7942 6.834139,-19.92952 20.971685,-36.13092 39.684704,-45.47804 4.141543,-2.06869 7.76713,-3.40351 17.499977,-6.44298 0.23854,-0.0745 0.21712,-0.14726 1.69257,-0.29315 -0.26562,2.0416 -0.55249,4.549 -0.66314,6.83553 -0.11059,2.28528 0,6.86386 0,6.86386 l -6.136573,2.23812 c -7.88568,2.87608 -19.63226,10.62318 -24.980751,16.47529 -5.392171,5.8999 -11.074423,15.0445 -13.726469,22.09033 -4.061947,10.79165 -4.567934,16.79875 -4.567934,54.23075 l 0,34.48029 34.480322,0 c 37.939262,0 43.734922,-0.5124 54.922382,-4.8565 7.87298,-3.0572 18.8779,-10.4286 24.10142,-16.144 13.07178,-14.30258 19.83365,-34.32906 17.5177,-51.88184 -2.60031,-19.70812 -12.8505,-36.55702 -28.62533,-47.05323 -8.2257,-5.47322 -16.71836,-8.9467 -25.56379,-10.45554 l -6.42101,-1.09528 c 0,0 -0.0224,-4.35014 0.22249,-6.50632 0.24306,-2.14036 0.44563,-3.4477 1.233,-6.34363 l 5.22043,0.54858 c 6.47863,0.6808 17.07822,3.91139 23.79465,7.29128 19.37945,9.7523 33.68271,26.54273 40.18803,47.17628 12.81316,40.64078 -9.40265,84.177 -50.07036,98.1226 -11.34131,3.8891 -18.16617,4.364 -62.794057,4.3692 l -41.382327,0.01 0.0047,-41.3823 z M 153.2867,976.69083 c -27.65442,-5.42467 -50.95908,-26.50188 -59.597497,-53.9012 -12.813182,-40.64079 9.402637,-84.17707 50.070347,-98.12272 11.34129,-3.88913 18.16615,-4.364 62.79405,-4.36924 l 41.38231,-0.005 -0.005,41.38241 c -0.005,44.62801 -0.48012,51.45289 -4.36923,62.79421 -6.83416,19.92952 -20.97169,36.13091 -39.68472,45.47803 -4.14152,2.06869 -9.20444,3.93835 -18.72923,6.80555 0.19017,-1.81079 0.52616,-4.31819 0.6093,-6.48917 0.0937,-2.44615 -0.12533,-7.34276 -0.12533,-7.34276 l 5.85246,-2.17501 c 7.86799,-2.92405 19.63226,-10.62316 24.98074,-16.47529 5.39217,-5.89988 11.07442,-15.0445 13.72647,-22.09033 4.06203,-10.79164 4.56801,-16.79873 4.56801,-54.23075 l 0,-34.4804 -34.48031,0 c -37.93926,0 -43.73493,0.5125 -54.92239,4.85661 -7.87297,3.05709 -18.8779,10.42857 -24.10142,16.14395 -13.14566,14.38347 -19.97745,34.88836 -17.47609,52.45263 2.77821,19.50846 12.98171,36.10128 28.58372,46.48251 8.22571,5.47322 16.71838,8.94669 25.5638,10.45552 l 6.421,1.0953 c 0,0 0.19477,4.32098 -0.0439,6.46165 -0.23323,2.09186 -1.22558,5.7165 -1.34886,6.16872 -1.68991,-0.0496 -7.66117,-0.50165 -9.66828,-0.89537 z"
       id="path3065-9"
       inkscape:connector-curvature="0"
       sodipodi:nodetypes="cssscacsssscsssssscacsssscccccssscssscacsssscsssssscaccc" />
    <path
       style="fill:#ffffff"
       d="m 16.004845,994.97476 c 0.0047,-44.628 0.480108,-51.45287 4.369225,-62.79419 6.834146,-19.92952 20.971706,-36.13092 39.684745,-45.47804 4.141547,-2.06869 7.767138,-3.40351 17.499999,-6.44298 0.238536,-0.0745 0.217119,-0.14726 1.692567,-0.29315 -0.265623,2.0416 -0.552488,4.549 -0.663141,6.83553 -0.110592,2.28528 0,6.86386 0,6.86386 l -6.136579,2.23812 c -7.885688,2.87608 -19.63228,10.62318 -24.980776,16.47529 -5.392177,5.8999 -11.074435,15.0445 -13.726483,22.09033 -4.061952,10.79165 -4.567939,16.79875 -4.567939,54.23075 l 0,34.48042 34.480357,0 c 37.93931,0 43.73498,-0.5124 54.92245,-4.8566 7.87298,-3.0571 18.87792,-10.4286 24.10144,-16.144 13.0718,-14.30261 19.83367,-34.32909 17.51772,-51.88187 -2.60031,-19.70812 -12.85051,-36.55702 -28.62536,-47.05323 -8.22571,-5.47322 -16.71838,-8.9467 -25.56382,-10.45554 l -6.421013,-1.09528 c 0,0 -0.02237,-4.35014 0.222491,-6.50632 0.243062,-2.14036 0.445632,-3.4477 1.233002,-6.34363 l 5.22043,0.54858 c 6.47864,0.6808 17.07824,3.91139 23.79468,7.29128 19.37947,9.7523 33.68274,26.54273 40.18807,47.17628 12.81318,40.64078 -9.40266,84.17703 -50.07041,98.12273 -11.34132,3.8891 -18.16619,4.364 -62.794131,4.3692 l -41.38237,0.01 0.0047,-41.38239 z M 145.35068,968.7549 c -27.65444,-5.42467 -50.959132,-26.50188 -59.597563,-53.9012 -12.813194,-40.64079 9.402655,-84.17707 50.070403,-98.12272 11.34131,-3.88913 18.16617,-4.364 62.79413,-4.36924 L 240,812.3568 l -0.005,41.38241 c -0.005,44.62801 -0.48012,51.45289 -4.36923,62.79421 -6.83417,19.92952 -20.97171,36.13091 -39.68476,45.47803 -4.14153,2.06869 -9.20445,3.93835 -18.72926,6.80555 0.19017,-1.81079 0.52616,-4.31819 0.6093,-6.48917 0.0937,-2.44615 -0.12533,-7.34276 -0.12533,-7.34276 l 5.85247,-2.17501 c 7.868,-2.92405 19.63228,-10.62316 24.98077,-16.47529 5.39217,-5.89988 11.07443,-15.0445 13.72648,-22.09033 4.06204,-10.79164 4.56802,-16.79873 4.56802,-54.23075 l 0,-34.4804 -34.48035,0 c -37.93931,0 -43.73498,0.5125 -54.92245,4.85661 -7.87298,3.05709 -18.87792,10.42857 -24.10145,16.14395 -13.14567,14.38347 -19.977468,34.88836 -17.476111,52.45263 2.778227,19.50846 12.981731,36.10128 28.583751,46.48251 8.22572,5.47322 16.7184,8.94669 25.56383,10.45552 l 6.42101,1.0953 c 0,0 0.19477,4.32098 -0.0439,6.46165 -0.23323,2.09186 -1.22559,5.7165 -1.34887,6.16872 -1.68991,-0.0496 -7.66117,-0.50165 -9.66829,-0.89537 z"
       id="path3065"
       inkscape:connector-curvature="0"
       sodipodi:nodetypes="cssscacsssscsssssscacsssscccccssscssscacsssscsssssscaccc" />
  </g>
</svg>
